<?xml version="1.0" encoding="UTF-8" standalone="no"?>
<!-- Created with Inkscape (http://www.inkscape.org/) -->

<svg
   width="167.22092"
   height="40.138165"
   viewBox="0 0 44.243869 10.619889"
   version="1.1"
   id="svg5"
   sodipodi:docname="sisorkh-with-text.svg"
   inkscape:version="1.4 (e7c3feb100, 2024-10-09)"
   inkscape:export-filename="sisorkh-white-large.png"
   inkscape:export-xdpi="256"
   inkscape:export-ydpi="256"
   xml:space="preserve"
   xmlns:inkscape="http://www.inkscape.org/namespaces/inkscape"
   xmlns:sodipodi="http://sodipodi.sourceforge.net/DTD/sodipodi-0.dtd"
   xmlns="http://www.w3.org/2000/svg"
   xmlns:svg="http://www.w3.org/2000/svg"><sodipodi:namedview
     id="namedview7"
     pagecolor="#ffffff"
     bordercolor="#000000"
     borderopacity="0.25"
     inkscape:showpageshadow="2"
     inkscape:pageopacity="0.0"
     inkscape:pagecheckerboard="false"
     inkscape:deskcolor="#d1d1d1"
     inkscape:document-units="px"
     showgrid="false"
     showguides="false"
     inkscape:zoom="1.8427827"
     inkscape:cx="85.468567"
     inkscape:cy="7.8685347"
     inkscape:window-width="1366"
     inkscape:window-height="722"
     inkscape:window-x="0"
     inkscape:window-y="23"
     inkscape:window-maximized="1"
     inkscape:current-layer="layer1" /><defs
     id="defs2"><rect
       x="-150.67599"
       y="-64.66227"
       width="134.19637"
       height="40.138165"
       id="rect1" /><inkscape:perspective
       sodipodi:type="inkscape:persp3d"
       inkscape:vp_x="0 : -134.90093 : 1"
       inkscape:vp_y="0 : 999.99995 : 0"
       inkscape:vp_z="291.04167 : -134.90093 : 1"
       inkscape:persp3d-origin="145.52084 : -183.40788 : 1"
       id="perspective2" /></defs><g
     inkscape:label="Layer 1"
     inkscape:groupmode="layer"
     id="layer1"
     transform="translate(4.7810022,-46.84315)"><g
       id="g57"
       transform="matrix(0.05734024,0,0,0.05734024,-4.9967774,46.84315)"
       inkscape:export-filename="./g2.png"
       inkscape:export-xdpi="128"
       inkscape:export-ydpi="128"><path
         id="ellipse56"
         style="baseline-shift:baseline;display:inline;overflow:visible;opacity:1;vector-effect:none;fill:#cc0000;enable-background:accumulate;stop-color:#000000;stop-opacity:1"
         d="M 190.48828,46.996094 C 166.05512,46.996096 146.5,67.778891 146.5,92.603516 c 0,24.824624 19.55512,45.609374 43.98828,45.609374 24.43316,1e-5 43.98828,-20.78474 43.98828,-45.609374 0,-24.82463 -19.55512,-45.607428 -43.98828,-45.607422 z m 0,20 c 13.10887,-3e-6 23.98828,11.099568 23.98828,25.607422 0,14.507854 -10.87941,25.609374 -23.98828,25.609374 -13.10886,0 -23.98828,-11.10152 -23.98828,-25.609374 0,-14.507851 10.87942,-25.607421 23.98828,-25.607422 z M 162.51306,-3.086263e-6 C 136.01812,38.206206 123.0562,45.96743 83.138062,39.687493 L 3.7630671,119.06249 C 86.852393,107.85244 106.95327,129.64853 162.51306,185.20832 162.51306,124.11575 96.878199,92.604167 56.679722,92.604167 76.495209,63.247177 94.000277,57.592447 125.84995,68.714602 154.00158,50.642003 163.32788,34.09071 162.51306,-3.086263e-6 Z" /></g><text
       xml:space="preserve"
       transform="matrix(0.26458333,0,0,0.26458333,44.024516,65.682846)"
       id="text1"
       style="font-style:normal;font-variant:normal;font-weight:bold;font-stretch:normal;font-size:21.3333px;font-family:Sahel;-inkscape-font-specification:'Sahel, Bold';font-variant-ligatures:normal;font-variant-caps:normal;font-variant-numeric:normal;font-variant-east-asian:normal;text-align:justify;writing-mode:lr-tb;direction:rtl;white-space:pre;shape-inside:url(#rect1);opacity:1;fill:#cc0000;fill-opacity:1;stroke:none;stroke-width:30.9921;stroke-miterlimit:6.2"><tspan
         x="-16.480469"
         y="-47.328803"
         id="tspan2">نشر سی‌سرخ</tspan></text></g></svg>
